<?xml version="1.0" encoding="utf-8" standalone="no"?>
<!DOCTYPE svg PUBLIC "-//W3C//DTD SVG 1.1//EN"
  "http://www.w3.org/Graphics/SVG/1.1/DTD/svg11.dtd">
<svg xmlns:xlink="http://www.w3.org/1999/xlink" width="712.529688pt" height="424.264062pt" viewBox="0 0 712.529688 424.264062" xmlns="http://www.w3.org/2000/svg" version="1.1">
 <metadata>
  <rdf:RDF xmlns:dc="http://purl.org/dc/elements/1.1/" xmlns:cc="http://creativecommons.org/ns#" xmlns:rdf="http://www.w3.org/1999/02/22-rdf-syntax-ns#">
   <cc:Work>
    <dc:type rdf:resource="http://purl.org/dc/dcmitype/StillImage"/>
    <dc:date>2026-03-30T02:22:17.169879</dc:date>
    <dc:format>image/svg+xml</dc:format>
    <dc:creator>
     <cc:Agent>
      <dc:title>Matplotlib v3.10.6, https://matplotlib.org/</dc:title>
     </cc:Agent>
    </dc:creator>
   </cc:Work>
  </rdf:RDF>
 </metadata>
 <defs>
  <style type="text/css">*{stroke-linejoin: round; stroke-linecap: butt}</style>
 </defs>
 <g id="figure_1">
  <g id="patch_1">
   <path d="M 0 424.264062 
L 712.529688 424.264062 
L 712.529688 0 
L 0 0 
z
" style="fill: #ffffff"/>
  </g>
  <g id="axes_1">
   <g id="patch_2">
    <path d="M 50.918438 384.601562 
L 705.329688 384.601562 
L 705.329688 23.837812 
L 50.918438 23.837812 
z
" style="fill: #ffffff"/>
   </g>
   <g id="FillBetweenPolyCollection_1">
    <defs>
     <path id="me65aeb6046" d="M 80.664403 -87.894339 
L 80.664403 -56.060852 
L 87.274618 -188.474442 
L 93.884833 -209.3308 
L 100.495047 -227.074438 
L 107.105262 -264.595803 
L 113.715477 -306.367416 
L 120.325691 -319.079975 
L 126.935906 -319.351798 
L 133.546121 -310.116534 
L 140.156335 -298.047628 
L 146.76655 -287.475328 
L 153.376765 -281.856488 
L 159.986979 -279.204256 
L 166.597194 -286.463627 
L 173.207408 -302.082688 
L 179.817623 -324.519667 
L 186.427838 -330.038694 
L 193.038052 -331.083275 
L 199.648267 -339.536731 
L 206.258482 -333.958066 
L 212.868696 -341.288855 
L 219.478911 -337.048553 
L 226.089126 -313.053967 
L 232.69934 -284.25363 
L 239.309555 -261.330186 
L 245.91977 -252.166925 
L 252.529984 -243.507212 
L 259.140199 -237.180206 
L 265.750414 -233.428904 
L 272.360628 -234.867548 
L 278.970843 -242.931037 
L 285.581057 -278.821934 
L 292.191272 -254.139151 
L 298.801487 -224.040196 
L 305.411701 -219.34241 
L 312.021916 -219.80867 
L 318.632131 -218.134127 
L 325.242345 -216.404977 
L 331.85256 -220.112126 
L 338.462775 -220.186547 
L 345.072989 -215.434154 
L 351.683204 -214.616072 
L 358.293419 -211.968834 
L 364.903633 -209.487052 
L 371.513848 -210.174468 
L 378.124063 -208.939506 
L 384.734277 -197.826485 
L 391.344492 -196.624911 
L 397.954706 -199.856282 
L 404.564921 -200.501885 
L 411.175136 -196.890376 
L 417.78535 -197.023459 
L 424.395565 -198.05357 
L 431.00578 -193.378562 
L 437.615994 -193.905279 
L 444.226209 -197.379415 
L 450.836424 -197.662822 
L 457.446638 -190.805978 
L 464.056853 -189.802469 
L 470.667068 -190.412812 
L 477.277282 -196.855662 
L 483.887497 -205.126499 
L 490.497711 -329.539163 
L 497.107926 -328.63609 
L 503.718141 -200.048886 
L 510.328355 -187.63795 
L 516.93857 -190.824076 
L 523.548785 -185.115136 
L 530.158999 -184.856067 
L 536.769214 -188.191191 
L 543.379429 -186.652461 
L 549.989643 -180.667915 
L 556.599858 -182.494654 
L 563.210073 -183.416643 
L 569.820287 -183.643026 
L 576.430502 -180.32132 
L 583.040717 -178.487872 
L 589.650931 -172.4346 
L 596.261146 -172.864196 
L 602.87136 -183.546451 
L 609.481575 -181.147593 
L 616.09179 -169.362835 
L 622.702004 -178.513693 
L 629.312219 -185.741003 
L 635.922434 -170.771914 
L 642.532648 -165.995182 
L 649.142863 -171.477038 
L 655.753078 -169.681502 
L 662.363292 -166.964133 
L 668.973507 -165.850319 
L 675.583722 -160.809371 
L 675.583722 -212.760002 
L 675.583722 -212.760002 
L 668.973507 -217.740103 
L 662.363292 -218.470112 
L 655.753078 -220.999635 
L 649.142863 -222.774421 
L 642.532648 -216.834807 
L 635.922434 -221.992379 
L 629.312219 -238.153291 
L 622.702004 -230.010779 
L 616.09179 -219.813195 
L 609.481575 -232.805377 
L 602.87136 -235.225454 
L 596.261146 -223.216732 
L 589.650931 -222.247781 
L 583.040717 -228.072799 
L 576.430502 -229.551462 
L 569.820287 -232.668159 
L 563.210073 -230.675651 
L 556.599858 -229.441157 
L 549.989643 -227.548422 
L 543.379429 -232.617921 
L 536.769214 -232.807562 
L 530.158999 -228.610906 
L 523.548785 -228.855932 
L 516.93857 -235.148849 
L 510.328355 -230.597096 
L 503.718141 -243.300878 
L 497.107926 -383.449187 
L 490.497711 -384.027898 
L 483.887497 -246.632491 
L 477.277282 -237.918718 
L 470.667068 -231.511284 
L 464.056853 -229.512223 
L 457.446638 -230.079037 
L 450.836424 -237.481945 
L 444.226209 -236.997118 
L 437.615994 -232.447393 
L 431.00578 -231.46167 
L 424.395565 -235.874411 
L 417.78535 -235.107972 
L 411.175136 -235.225454 
L 404.564921 -239.307202 
L 397.954706 -238.784073 
L 391.344492 -234.974498 
L 384.734277 -234.732904 
L 378.124063 -246.408215 
L 371.513848 -247.550814 
L 364.903633 -246.801771 
L 358.293419 -247.892182 
L 351.683204 -250.458135 
L 345.072989 -250.948111 
L 338.462775 -256.339398 
L 331.85256 -255.951068 
L 325.242345 -251.642314 
L 318.632131 -253.210453 
L 312.021916 -254.718369 
L 305.411701 -254.372086 
L 298.801487 -260.694802 
L 292.191272 -290.862717 
L 285.581057 -317.770514 
L 278.970843 -279.500769 
L 272.360628 -270.315197 
L 265.750414 -267.538697 
L 259.140199 -270.381817 
L 252.529984 -278.279146 
L 245.91977 -288.824027 
L 239.309555 -297.237309 
L 232.69934 -322.750381 
L 226.089126 -354.212428 
L 219.478911 -380.097175 
L 212.868696 -382.770196 
L 206.258482 -372.027055 
L 199.648267 -378.506179 
L 193.038052 -369.727737 
L 186.427838 -369.391635 
L 179.817623 -365.179104 
L 173.207408 -340.904231 
L 166.597194 -321.359908 
L 159.986979 -311.190914 
L 153.376765 -313.607753 
L 146.76655 -320.67101 
L 140.156335 -332.107729 
L 133.546121 -345.16384 
L 126.935906 -353.379915 
L 120.325691 -352.932026 
L 113.715477 -338.486729 
L 107.105262 -293.967167 
L 100.495047 -258.467018 
L 93.884833 -241.770106 
L 87.274618 -221.080063 
L 80.664403 -87.894339 
z
" style="stroke: #b2182b; stroke-opacity: 0.15"/>
    </defs>
    <g clip-path="url(#p98cf8d710a)">
     <use xlink:href="#me65aeb6046" x="0" y="424.264062" style="fill: #b2182b; fill-opacity: 0.15; stroke: #b2182b; stroke-opacity: 0.15"/>
    </g>
   </g>
   <g id="patch_3">
    <path d="M 186.427838 384.601562 
L 252.529984 384.601562 
L 252.529984 23.837812 
L 186.427838 23.837812 
z
" clip-path="url(#p98cf8d710a)" style="fill: #fdb863; opacity: 0.1; stroke: #fdb863; stroke-linejoin: miter"/>
   </g>
   <g id="matplotlib.axis_1">
    <g id="xtick_1">
     <g id="line2d_1">
      <path d="M 80.664403 384.601562 
L 80.664403 23.837812 
" clip-path="url(#p98cf8d710a)" style="fill: none; stroke: #b0b0b0; stroke-opacity: 0.3; stroke-width: 0.8; stroke-linecap: square"/>
     </g>
     <g id="line2d_2">
      <defs>
       <path id="mc303ac5a68" d="M 0 0 
L 0 3.5 
" style="stroke: #000000; stroke-width: 0.8"/>
      </defs>
      <g>
       <use xlink:href="#mc303ac5a68" x="80.664403" y="384.601562" style="stroke: #000000; stroke-width: 0.8"/>
      </g>
     </g>
     <g id="text_1">
      <!-- 0 -->
      <g transform="translate(77.483153 399.2) scale(0.1 -0.1)">
       <defs>
        <path id="DejaVuSerif-30" d="M 2034 219 
Q 2513 219 2750 744 
Q 2988 1269 2988 2328 
Q 2988 3391 2750 3916 
Q 2513 4441 2034 4441 
Q 1556 4441 1318 3916 
Q 1081 3391 1081 2328 
Q 1081 1269 1318 744 
Q 1556 219 2034 219 
z
M 2034 -91 
Q 1275 -91 848 546 
Q 422 1184 422 2328 
Q 422 3475 848 4112 
Q 1275 4750 2034 4750 
Q 2797 4750 3222 4112 
Q 3647 3475 3647 2328 
Q 3647 1184 3222 546 
Q 2797 -91 2034 -91 
z
" transform="scale(0.015625)"/>
       </defs>
       <use xlink:href="#DejaVuSerif-30"/>
      </g>
     </g>
    </g>
    <g id="xtick_2">
     <g id="line2d_3">
      <path d="M 212.868696 384.601562 
L 212.868696 23.837812 
" clip-path="url(#p98cf8d710a)" style="fill: none; stroke: #b0b0b0; stroke-opacity: 0.3; stroke-width: 0.8; stroke-linecap: square"/>
     </g>
     <g id="line2d_4">
      <g>
       <use xlink:href="#mc303ac5a68" x="212.868696" y="384.601562" style="stroke: #000000; stroke-width: 0.8"/>
      </g>
     </g>
     <g id="text_2">
      <!-- 10 -->
      <g transform="translate(206.506196 399.2) scale(0.1 -0.1)">
       <defs>
        <path id="DejaVuSerif-31" d="M 909 0 
L 909 331 
L 1722 331 
L 1722 4213 
L 781 3603 
L 781 4013 
L 1919 4750 
L 2350 4750 
L 2350 331 
L 3163 331 
L 3163 0 
L 909 0 
z
" transform="scale(0.015625)"/>
       </defs>
       <use xlink:href="#DejaVuSerif-31"/>
       <use xlink:href="#DejaVuSerif-30" transform="translate(63.623047 0)"/>
      </g>
     </g>
    </g>
    <g id="xtick_3">
     <g id="line2d_5">
      <path d="M 345.072989 384.601562 
L 345.072989 23.837812 
" clip-path="url(#p98cf8d710a)" style="fill: none; stroke: #b0b0b0; stroke-opacity: 0.3; stroke-width: 0.8; stroke-linecap: square"/>
     </g>
     <g id="line2d_6">
      <g>
       <use xlink:href="#mc303ac5a68" x="345.072989" y="384.601562" style="stroke: #000000; stroke-width: 0.8"/>
      </g>
     </g>
     <g id="text_3">
      <!-- 20 -->
      <g transform="translate(338.710489 399.2) scale(0.1 -0.1)">
       <defs>
        <path id="DejaVuSerif-32" d="M 819 3553 
L 469 3553 
L 469 4384 
Q 803 4563 1142 4656 
Q 1481 4750 1806 4750 
Q 2534 4750 2956 4397 
Q 3378 4044 3378 3438 
Q 3378 2753 2422 1800 
Q 2347 1728 2309 1691 
L 1131 513 
L 3078 513 
L 3078 1088 
L 3444 1088 
L 3444 0 
L 434 0 
L 434 341 
L 1850 1753 
Q 2319 2222 2519 2614 
Q 2719 3006 2719 3438 
Q 2719 3909 2473 4175 
Q 2228 4441 1797 4441 
Q 1350 4441 1106 4219 
Q 863 3997 819 3553 
z
" transform="scale(0.015625)"/>
       </defs>
       <use xlink:href="#DejaVuSerif-32"/>
       <use xlink:href="#DejaVuSerif-30" transform="translate(63.623047 0)"/>
      </g>
     </g>
    </g>
    <g id="xtick_4">
     <g id="line2d_7">
      <path d="M 477.277282 384.601562 
L 477.277282 23.837812 
" clip-path="url(#p98cf8d710a)" style="fill: none; stroke: #b0b0b0; stroke-opacity: 0.3; stroke-width: 0.8; stroke-linecap: square"/>
     </g>
     <g id="line2d_8">
      <g>
       <use xlink:href="#mc303ac5a68" x="477.277282" y="384.601562" style="stroke: #000000; stroke-width: 0.8"/>
      </g>
     </g>
     <g id="text_4">
      <!-- 30 -->
      <g transform="translate(470.914782 399.2) scale(0.1 -0.1)">
       <defs>
        <path id="DejaVuSerif-33" d="M 622 4469 
Q 988 4606 1323 4678 
Q 1659 4750 1953 4750 
Q 2638 4750 3022 4454 
Q 3406 4159 3406 3634 
Q 3406 3213 3140 2930 
Q 2875 2647 2388 2547 
Q 2963 2466 3280 2130 
Q 3597 1794 3597 1259 
Q 3597 606 3158 257 
Q 2719 -91 1894 -91 
Q 1528 -91 1179 -12 
Q 831 66 488 225 
L 488 1131 
L 838 1131 
Q 869 681 1141 450 
Q 1413 219 1906 219 
Q 2384 219 2661 495 
Q 2938 772 2938 1253 
Q 2938 1803 2653 2086 
Q 2369 2369 1819 2369 
L 1522 2369 
L 1522 2688 
L 1678 2688 
Q 2225 2688 2498 2914 
Q 2772 3141 2772 3597 
Q 2772 4006 2547 4223 
Q 2322 4441 1900 4441 
Q 1478 4441 1245 4241 
Q 1013 4041 972 3647 
L 622 3647 
L 622 4469 
z
" transform="scale(0.015625)"/>
       </defs>
       <use xlink:href="#DejaVuSerif-33"/>
       <use xlink:href="#DejaVuSerif-30" transform="translate(63.623047 0)"/>
      </g>
     </g>
    </g>
    <g id="xtick_5">
     <g id="line2d_9">
      <path d="M 609.481575 384.601562 
L 609.481575 23.837812 
" clip-path="url(#p98cf8d710a)" style="fill: none; stroke: #b0b0b0; stroke-opacity: 0.3; stroke-width: 0.8; stroke-linecap: square"/>
     </g>
     <g id="line2d_10">
      <g>
       <use xlink:href="#mc303ac5a68" x="609.481575" y="384.601562" style="stroke: #000000; stroke-width: 0.8"/>
      </g>
     </g>
     <g id="text_5">
      <!-- 40 -->
      <g transform="translate(603.119075 399.2) scale(0.1 -0.1)">
       <defs>
        <path id="DejaVuSerif-34" d="M 2234 1581 
L 2234 4063 
L 641 1581 
L 2234 1581 
z
M 3609 0 
L 1484 0 
L 1484 331 
L 2234 331 
L 2234 1247 
L 197 1247 
L 197 1588 
L 2241 4750 
L 2859 4750 
L 2859 1581 
L 3750 1581 
L 3750 1247 
L 2859 1247 
L 2859 331 
L 3609 331 
L 3609 0 
z
" transform="scale(0.015625)"/>
       </defs>
       <use xlink:href="#DejaVuSerif-34"/>
       <use xlink:href="#DejaVuSerif-30" transform="translate(63.623047 0)"/>
      </g>
     </g>
    </g>
    <g id="text_6">
     <!-- Frequency (Hz) -->
     <g transform="translate(330.688438 414.397812) scale(0.12 -0.12)">
      <defs>
       <path id="DejaVuSerif-46" d="M 353 0 
L 353 331 
L 947 331 
L 947 4331 
L 353 4331 
L 353 4666 
L 4172 4666 
L 4172 3628 
L 3788 3628 
L 3788 4281 
L 1581 4281 
L 1581 2719 
L 3175 2719 
L 3175 3303 
L 3559 3303 
L 3559 1753 
L 3175 1753 
L 3175 2338 
L 1581 2338 
L 1581 331 
L 2328 331 
L 2328 0 
L 353 0 
z
" transform="scale(0.015625)"/>
       <path id="DejaVuSerif-72" d="M 3059 3328 
L 3059 2497 
L 2728 2497 
Q 2713 2744 2591 2866 
Q 2469 2988 2234 2988 
Q 1809 2988 1582 2694 
Q 1356 2400 1356 1850 
L 1356 331 
L 2022 331 
L 2022 0 
L 263 0 
L 263 331 
L 781 331 
L 781 2994 
L 231 2994 
L 231 3322 
L 1356 3322 
L 1356 2731 
Q 1525 3078 1790 3245 
Q 2056 3413 2438 3413 
Q 2578 3413 2733 3391 
Q 2888 3369 3059 3328 
z
" transform="scale(0.015625)"/>
       <path id="DejaVuSerif-65" d="M 3469 1600 
L 991 1600 
L 991 1575 
Q 991 903 1244 561 
Q 1497 219 1991 219 
Q 2369 219 2611 417 
Q 2853 616 2950 1006 
L 3413 1006 
Q 3275 459 2904 184 
Q 2534 -91 1931 -91 
Q 1203 -91 761 389 
Q 319 869 319 1663 
Q 319 2450 753 2931 
Q 1188 3413 1894 3413 
Q 2647 3413 3050 2948 
Q 3453 2484 3469 1600 
z
M 2791 1931 
Q 2772 2513 2545 2808 
Q 2319 3103 1894 3103 
Q 1497 3103 1269 2806 
Q 1041 2509 991 1931 
L 2791 1931 
z
" transform="scale(0.015625)"/>
       <path id="DejaVuSerif-71" d="M 3359 2988 
L 3359 -997 
L 3909 -997 
L 3909 -1331 
L 2241 -1331 
L 2241 -997 
L 2784 -997 
L 2784 519 
Q 2616 206 2355 57 
Q 2094 -91 1709 -91 
Q 1097 -91 708 395 
Q 319 881 319 1663 
Q 319 2444 706 2928 
Q 1094 3413 1709 3413 
Q 2094 3413 2355 3264 
Q 2616 3116 2784 2803 
L 2784 3322 
L 3909 3322 
L 3909 2988 
L 3359 2988 
z
M 2784 1825 
Q 2784 2422 2554 2737 
Q 2325 3053 1888 3053 
Q 1444 3053 1217 2703 
Q 991 2353 991 1663 
Q 991 975 1217 622 
Q 1444 269 1888 269 
Q 2325 269 2554 583 
Q 2784 897 2784 1497 
L 2784 1825 
z
" transform="scale(0.015625)"/>
       <path id="DejaVuSerif-75" d="M 2266 3322 
L 3341 3322 
L 3341 331 
L 3884 331 
L 3884 0 
L 2766 0 
L 2766 588 
Q 2606 256 2353 82 
Q 2100 -91 1766 -91 
Q 1213 -91 952 223 
Q 691 538 691 1209 
L 691 2988 
L 172 2988 
L 172 3322 
L 1269 3322 
L 1269 1388 
Q 1269 781 1417 556 
Q 1566 331 1947 331 
Q 2347 331 2556 625 
Q 2766 919 2766 1478 
L 2766 2988 
L 2266 2988 
L 2266 3322 
z
" transform="scale(0.015625)"/>
       <path id="DejaVuSerif-6e" d="M 263 0 
L 263 331 
L 781 331 
L 781 2988 
L 231 2988 
L 231 3322 
L 1356 3322 
L 1356 2731 
Q 1516 3069 1770 3241 
Q 2025 3413 2363 3413 
Q 2913 3413 3172 3097 
Q 3431 2781 3431 2113 
L 3431 331 
L 3944 331 
L 3944 0 
L 2356 0 
L 2356 331 
L 2853 331 
L 2853 1931 
Q 2853 2541 2703 2767 
Q 2553 2994 2175 2994 
Q 1775 2994 1565 2701 
Q 1356 2409 1356 1850 
L 1356 331 
L 1856 331 
L 1856 0 
L 263 0 
z
" transform="scale(0.015625)"/>
       <path id="DejaVuSerif-63" d="M 3291 997 
Q 3169 466 2822 187 
Q 2475 -91 1925 -91 
Q 1200 -91 759 389 
Q 319 869 319 1663 
Q 319 2459 759 2936 
Q 1200 3413 1925 3413 
Q 2241 3413 2553 3339 
Q 2866 3266 3181 3116 
L 3181 2266 
L 2847 2266 
Q 2781 2703 2561 2903 
Q 2341 3103 1931 3103 
Q 1466 3103 1228 2742 
Q 991 2381 991 1663 
Q 991 944 1227 581 
Q 1463 219 1931 219 
Q 2303 219 2525 412 
Q 2747 606 2828 997 
L 3291 997 
z
" transform="scale(0.015625)"/>
       <path id="DejaVuSerif-79" d="M 1381 -609 
L 1600 -56 
L 359 2988 
L -19 2988 
L -19 3322 
L 1509 3322 
L 1509 2988 
L 978 2988 
L 1913 703 
L 2847 2988 
L 2350 2988 
L 2350 3322 
L 3597 3322 
L 3597 2988 
L 3225 2988 
L 1703 -750 
Q 1547 -1138 1356 -1280 
Q 1166 -1422 819 -1422 
Q 672 -1422 517 -1397 
Q 363 -1372 206 -1325 
L 206 -691 
L 500 -691 
Q 519 -903 608 -995 
Q 697 -1088 884 -1088 
Q 1056 -1088 1161 -992 
Q 1266 -897 1381 -609 
z
" transform="scale(0.015625)"/>
       <path id="DejaVuSerif-20" transform="scale(0.015625)"/>
       <path id="DejaVuSerif-28" d="M 2041 -997 
Q 1281 -656 893 83 
Q 506 822 506 1931 
Q 506 3044 893 3783 
Q 1281 4522 2041 4863 
L 2041 4556 
Q 1559 4225 1350 3623 
Q 1141 3022 1141 1931 
Q 1141 844 1350 242 
Q 1559 -359 2041 -691 
L 2041 -997 
z
" transform="scale(0.015625)"/>
       <path id="DejaVuSerif-48" d="M 353 0 
L 353 331 
L 947 331 
L 947 4331 
L 353 4331 
L 353 4666 
L 2175 4666 
L 2175 4331 
L 1581 4331 
L 1581 2719 
L 4000 2719 
L 4000 4331 
L 3406 4331 
L 3406 4666 
L 5228 4666 
L 5228 4331 
L 4634 4331 
L 4634 331 
L 5228 331 
L 5228 0 
L 3406 0 
L 3406 331 
L 4000 331 
L 4000 2338 
L 1581 2338 
L 1581 331 
L 2175 331 
L 2175 0 
L 353 0 
z
" transform="scale(0.015625)"/>
       <path id="DejaVuSerif-7a" d="M 256 0 
L 256 269 
L 2338 2988 
L 691 2988 
L 691 2413 
L 359 2413 
L 359 3322 
L 3078 3322 
L 3078 3053 
L 997 331 
L 2803 331 
L 2803 934 
L 3138 934 
L 3138 0 
L 256 0 
z
" transform="scale(0.015625)"/>
       <path id="DejaVuSerif-29" d="M 453 -997 
L 453 -691 
Q 934 -359 1145 242 
Q 1356 844 1356 1931 
Q 1356 3022 1145 3623 
Q 934 4225 453 4556 
L 453 4863 
Q 1216 4522 1603 3783 
Q 1991 3044 1991 1931 
Q 1991 822 1603 83 
Q 1216 -656 453 -997 
z
" transform="scale(0.015625)"/>
      </defs>
      <use xlink:href="#DejaVuSerif-46"/>
      <use xlink:href="#DejaVuSerif-72" transform="translate(69.384766 0)"/>
      <use xlink:href="#DejaVuSerif-65" transform="translate(117.1875 0)"/>
      <use xlink:href="#DejaVuSerif-71" transform="translate(176.367188 0)"/>
      <use xlink:href="#DejaVuSerif-75" transform="translate(240.380859 0)"/>
      <use xlink:href="#DejaVuSerif-65" transform="translate(304.785156 0)"/>
      <use xlink:href="#DejaVuSerif-6e" transform="translate(363.964844 0)"/>
      <use xlink:href="#DejaVuSerif-63" transform="translate(428.369141 0)"/>
      <use xlink:href="#DejaVuSerif-79" transform="translate(484.375 0)"/>
      <use xlink:href="#DejaVuSerif-20" transform="translate(540.869141 0)"/>
      <use xlink:href="#DejaVuSerif-28" transform="translate(572.65625 0)"/>
      <use xlink:href="#DejaVuSerif-48" transform="translate(611.669922 0)"/>
      <use xlink:href="#DejaVuSerif-7a" transform="translate(698.876953 0)"/>
      <use xlink:href="#DejaVuSerif-29" transform="translate(751.5625 0)"/>
     </g>
    </g>
   </g>
   <g id="matplotlib.axis_2">
    <g id="ytick_1">
     <g id="line2d_11">
      <path d="M 50.918438 372.147273 
L 705.329688 372.147273 
" clip-path="url(#p98cf8d710a)" style="fill: none; stroke: #b0b0b0; stroke-opacity: 0.3; stroke-width: 0.8; stroke-linecap: square"/>
     </g>
     <g id="line2d_12">
      <defs>
       <path id="m12b2406959" d="M 0 0 
L -3.5 0 
" style="stroke: #000000; stroke-width: 0.8"/>
      </defs>
      <g>
       <use xlink:href="#m12b2406959" x="50.918438" y="372.147273" style="stroke: #000000; stroke-width: 0.8"/>
      </g>
     </g>
     <g id="text_7">
      <!-- −44 -->
      <g transform="translate(22.81375 375.946491) scale(0.1 -0.1)">
       <defs>
        <path id="DejaVuSerif-2212" d="M 678 2259 
L 4684 2259 
L 4684 1753 
L 678 1753 
L 678 2259 
z
" transform="scale(0.015625)"/>
       </defs>
       <use xlink:href="#DejaVuSerif-2212"/>
       <use xlink:href="#DejaVuSerif-34" transform="translate(83.789062 0)"/>
       <use xlink:href="#DejaVuSerif-34" transform="translate(147.412109 0)"/>
      </g>
     </g>
    </g>
    <g id="ytick_2">
     <g id="line2d_13">
      <path d="M 50.918438 331.248035 
L 705.329688 331.248035 
" clip-path="url(#p98cf8d710a)" style="fill: none; stroke: #b0b0b0; stroke-opacity: 0.3; stroke-width: 0.8; stroke-linecap: square"/>
     </g>
     <g id="line2d_14">
      <g>
       <use xlink:href="#m12b2406959" x="50.918438" y="331.248035" style="stroke: #000000; stroke-width: 0.8"/>
      </g>
     </g>
     <g id="text_8">
      <!-- −42 -->
      <g transform="translate(22.81375 335.047254) scale(0.1 -0.1)">
       <use xlink:href="#DejaVuSerif-2212"/>
       <use xlink:href="#DejaVuSerif-34" transform="translate(83.789062 0)"/>
       <use xlink:href="#DejaVuSerif-32" transform="translate(147.412109 0)"/>
      </g>
     </g>
    </g>
    <g id="ytick_3">
     <g id="line2d_15">
      <path d="M 50.918438 290.348798 
L 705.329688 290.348798 
" clip-path="url(#p98cf8d710a)" style="fill: none; stroke: #b0b0b0; stroke-opacity: 0.3; stroke-width: 0.8; stroke-linecap: square"/>
     </g>
     <g id="line2d_16">
      <g>
       <use xlink:href="#m12b2406959" x="50.918438" y="290.348798" style="stroke: #000000; stroke-width: 0.8"/>
      </g>
     </g>
     <g id="text_9">
      <!-- −40 -->
      <g transform="translate(22.81375 294.148017) scale(0.1 -0.1)">
       <use xlink:href="#DejaVuSerif-2212"/>
       <use xlink:href="#DejaVuSerif-34" transform="translate(83.789062 0)"/>
       <use xlink:href="#DejaVuSerif-30" transform="translate(147.412109 0)"/>
      </g>
     </g>
    </g>
    <g id="ytick_4">
     <g id="line2d_17">
      <path d="M 50.918438 249.449561 
L 705.329688 249.449561 
" clip-path="url(#p98cf8d710a)" style="fill: none; stroke: #b0b0b0; stroke-opacity: 0.3; stroke-width: 0.8; stroke-linecap: square"/>
     </g>
     <g id="line2d_18">
      <g>
       <use xlink:href="#m12b2406959" x="50.918438" y="249.449561" style="stroke: #000000; stroke-width: 0.8"/>
      </g>
     </g>
     <g id="text_10">
      <!-- −38 -->
      <g transform="translate(22.81375 253.24878) scale(0.1 -0.1)">
       <defs>
        <path id="DejaVuSerif-38" d="M 2981 1275 
Q 2981 1775 2732 2051 
Q 2484 2328 2034 2328 
Q 1584 2328 1336 2051 
Q 1088 1775 1088 1275 
Q 1088 772 1336 495 
Q 1584 219 2034 219 
Q 2484 219 2732 495 
Q 2981 772 2981 1275 
z
M 2853 3541 
Q 2853 3966 2637 4203 
Q 2422 4441 2034 4441 
Q 1650 4441 1433 4203 
Q 1216 3966 1216 3541 
Q 1216 3113 1433 2875 
Q 1650 2638 2034 2638 
Q 2422 2638 2637 2875 
Q 2853 3113 2853 3541 
z
M 2516 2484 
Q 3047 2413 3344 2092 
Q 3641 1772 3641 1275 
Q 3641 619 3225 264 
Q 2809 -91 2034 -91 
Q 1263 -91 845 264 
Q 428 619 428 1275 
Q 428 1772 725 2092 
Q 1022 2413 1556 2484 
Q 1084 2569 832 2842 
Q 581 3116 581 3541 
Q 581 4103 968 4426 
Q 1356 4750 2034 4750 
Q 2713 4750 3100 4426 
Q 3488 4103 3488 3541 
Q 3488 3116 3236 2842 
Q 2984 2569 2516 2484 
z
" transform="scale(0.015625)"/>
       </defs>
       <use xlink:href="#DejaVuSerif-2212"/>
       <use xlink:href="#DejaVuSerif-33" transform="translate(83.789062 0)"/>
       <use xlink:href="#DejaVuSerif-38" transform="translate(147.412109 0)"/>
      </g>
     </g>
    </g>
    <g id="ytick_5">
     <g id="line2d_19">
      <path d="M 50.918438 208.550324 
L 705.329688 208.550324 
" clip-path="url(#p98cf8d710a)" style="fill: none; stroke: #b0b0b0; stroke-opacity: 0.3; stroke-width: 0.8; stroke-linecap: square"/>
     </g>
     <g id="line2d_20">
      <g>
       <use xlink:href="#m12b2406959" x="50.918438" y="208.550324" style="stroke: #000000; stroke-width: 0.8"/>
      </g>
     </g>
     <g id="text_11">
      <!-- −36 -->
      <g transform="translate(22.81375 212.349543) scale(0.1 -0.1)">
       <defs>
        <path id="DejaVuSerif-36" d="M 2094 219 
Q 2534 219 2771 542 
Q 3009 866 3009 1472 
Q 3009 2078 2771 2401 
Q 2534 2725 2094 2725 
Q 1647 2725 1412 2412 
Q 1178 2100 1178 1509 
Q 1178 888 1415 553 
Q 1653 219 2094 219 
z
M 1075 2569 
Q 1288 2803 1556 2918 
Q 1825 3034 2163 3034 
Q 2859 3034 3264 2615 
Q 3669 2197 3669 1472 
Q 3669 763 3233 336 
Q 2797 -91 2069 -91 
Q 1278 -91 853 498 
Q 428 1088 428 2181 
Q 428 3406 931 4078 
Q 1434 4750 2350 4750 
Q 2597 4750 2869 4703 
Q 3141 4656 3425 4563 
L 3425 3794 
L 3072 3794 
Q 3034 4109 2831 4275 
Q 2628 4441 2284 4441 
Q 1678 4441 1381 3981 
Q 1084 3522 1075 2569 
z
" transform="scale(0.015625)"/>
       </defs>
       <use xlink:href="#DejaVuSerif-2212"/>
       <use xlink:href="#DejaVuSerif-33" transform="translate(83.789062 0)"/>
       <use xlink:href="#DejaVuSerif-36" transform="translate(147.412109 0)"/>
      </g>
     </g>
    </g>
    <g id="ytick_6">
     <g id="line2d_21">
      <path d="M 50.918438 167.651087 
L 705.329688 167.651087 
" clip-path="url(#p98cf8d710a)" style="fill: none; stroke: #b0b0b0; stroke-opacity: 0.3; stroke-width: 0.8; stroke-linecap: square"/>
     </g>
     <g id="line2d_22">
      <g>
       <use xlink:href="#m12b2406959" x="50.918438" y="167.651087" style="stroke: #000000; stroke-width: 0.8"/>
      </g>
     </g>
     <g id="text_12">
      <!-- −34 -->
      <g transform="translate(22.81375 171.450306) scale(0.1 -0.1)">
       <use xlink:href="#DejaVuSerif-2212"/>
       <use xlink:href="#DejaVuSerif-33" transform="translate(83.789062 0)"/>
       <use xlink:href="#DejaVuSerif-34" transform="translate(147.412109 0)"/>
      </g>
     </g>
    </g>
    <g id="ytick_7">
     <g id="line2d_23">
      <path d="M 50.918438 126.75185 
L 705.329688 126.75185 
" clip-path="url(#p98cf8d710a)" style="fill: none; stroke: #b0b0b0; stroke-opacity: 0.3; stroke-width: 0.8; stroke-linecap: square"/>
     </g>
     <g id="line2d_24">
      <g>
       <use xlink:href="#m12b2406959" x="50.918438" y="126.75185" style="stroke: #000000; stroke-width: 0.8"/>
      </g>
     </g>
     <g id="text_13">
      <!-- −32 -->
      <g transform="translate(22.81375 130.551068) scale(0.1 -0.1)">
       <use xlink:href="#DejaVuSerif-2212"/>
       <use xlink:href="#DejaVuSerif-33" transform="translate(83.789062 0)"/>
       <use xlink:href="#DejaVuSerif-32" transform="translate(147.412109 0)"/>
      </g>
     </g>
    </g>
    <g id="ytick_8">
     <g id="line2d_25">
      <path d="M 50.918438 85.852612 
L 705.329688 85.852612 
" clip-path="url(#p98cf8d710a)" style="fill: none; stroke: #b0b0b0; stroke-opacity: 0.3; stroke-width: 0.8; stroke-linecap: square"/>
     </g>
     <g id="line2d_26">
      <g>
       <use xlink:href="#m12b2406959" x="50.918438" y="85.852612" style="stroke: #000000; stroke-width: 0.8"/>
      </g>
     </g>
     <g id="text_14">
      <!-- −30 -->
      <g transform="translate(22.81375 89.651831) scale(0.1 -0.1)">
       <use xlink:href="#DejaVuSerif-2212"/>
       <use xlink:href="#DejaVuSerif-33" transform="translate(83.789062 0)"/>
       <use xlink:href="#DejaVuSerif-30" transform="translate(147.412109 0)"/>
      </g>
     </g>
    </g>
    <g id="ytick_9">
     <g id="line2d_27">
      <path d="M 50.918438 44.953375 
L 705.329688 44.953375 
" clip-path="url(#p98cf8d710a)" style="fill: none; stroke: #b0b0b0; stroke-opacity: 0.3; stroke-width: 0.8; stroke-linecap: square"/>
     </g>
     <g id="line2d_28">
      <g>
       <use xlink:href="#m12b2406959" x="50.918438" y="44.953375" style="stroke: #000000; stroke-width: 0.8"/>
      </g>
     </g>
     <g id="text_15">
      <!-- −28 -->
      <g transform="translate(22.81375 48.752594) scale(0.1 -0.1)">
       <use xlink:href="#DejaVuSerif-2212"/>
       <use xlink:href="#DejaVuSerif-32" transform="translate(83.789062 0)"/>
       <use xlink:href="#DejaVuSerif-38" transform="translate(147.412109 0)"/>
      </g>
     </g>
    </g>
    <g id="text_16">
     <!-- PSD (dB) -->
     <g transform="translate(16.318125 232.015625) rotate(-90) scale(0.12 -0.12)">
      <defs>
       <path id="DejaVuSerif-50" d="M 1581 2375 
L 2406 2375 
Q 2872 2375 3115 2626 
Q 3359 2878 3359 3353 
Q 3359 3831 3115 4081 
Q 2872 4331 2406 4331 
L 1581 4331 
L 1581 2375 
z
M 353 0 
L 353 331 
L 947 331 
L 947 4331 
L 353 4331 
L 353 4666 
L 2559 4666 
Q 3259 4666 3668 4311 
Q 4078 3956 4078 3353 
Q 4078 2753 3668 2397 
Q 3259 2041 2559 2041 
L 1581 2041 
L 1581 331 
L 2303 331 
L 2303 0 
L 353 0 
z
" transform="scale(0.015625)"/>
       <path id="DejaVuSerif-53" d="M 594 225 
L 594 1288 
L 953 1284 
Q 969 753 1261 498 
Q 1553 244 2150 244 
Q 2706 244 2998 464 
Q 3291 684 3291 1106 
Q 3291 1444 3114 1625 
Q 2938 1806 2369 1978 
L 1753 2163 
Q 1084 2366 811 2669 
Q 538 2972 538 3500 
Q 538 4094 959 4422 
Q 1381 4750 2144 4750 
Q 2469 4750 2856 4679 
Q 3244 4609 3681 4475 
L 3681 3481 
L 3328 3481 
Q 3275 3975 2998 4195 
Q 2722 4416 2156 4416 
Q 1663 4416 1405 4214 
Q 1147 4013 1147 3628 
Q 1147 3294 1340 3103 
Q 1534 2913 2163 2725 
L 2741 2553 
Q 3375 2363 3645 2067 
Q 3916 1772 3916 1275 
Q 3916 597 3481 253 
Q 3047 -91 2188 -91 
Q 1803 -91 1404 -12 
Q 1006 66 594 225 
z
" transform="scale(0.015625)"/>
       <path id="DejaVuSerif-44" d="M 1581 331 
L 2163 331 
Q 3072 331 3558 850 
Q 4044 1369 4044 2338 
Q 4044 3306 3559 3818 
Q 3075 4331 2163 4331 
L 1581 4331 
L 1581 331 
z
M 353 0 
L 353 331 
L 947 331 
L 947 4331 
L 353 4331 
L 353 4666 
L 2209 4666 
Q 3416 4666 4089 4050 
Q 4763 3434 4763 2338 
Q 4763 1238 4088 619 
Q 3413 0 2209 0 
L 353 0 
z
" transform="scale(0.015625)"/>
       <path id="DejaVuSerif-64" d="M 3359 331 
L 3909 331 
L 3909 0 
L 2784 0 
L 2784 519 
Q 2616 206 2355 57 
Q 2094 -91 1709 -91 
Q 1097 -91 708 395 
Q 319 881 319 1663 
Q 319 2444 706 2928 
Q 1094 3413 1709 3413 
Q 2094 3413 2355 3264 
Q 2616 3116 2784 2803 
L 2784 4531 
L 2241 4531 
L 2241 4863 
L 3359 4863 
L 3359 331 
z
M 2784 1497 
L 2784 1825 
Q 2784 2422 2554 2737 
Q 2325 3053 1888 3053 
Q 1444 3053 1217 2703 
Q 991 2353 991 1663 
Q 991 975 1217 622 
Q 1444 269 1888 269 
Q 2325 269 2554 583 
Q 2784 897 2784 1497 
z
" transform="scale(0.015625)"/>
       <path id="DejaVuSerif-42" d="M 1581 331 
L 2516 331 
Q 3078 331 3337 575 
Q 3597 819 3597 1350 
Q 3597 1878 3339 2120 
Q 3081 2363 2516 2363 
L 1581 2363 
L 1581 331 
z
M 1581 2694 
L 2375 2694 
Q 2888 2694 3123 2891 
Q 3359 3088 3359 3513 
Q 3359 3941 3123 4136 
Q 2888 4331 2375 4331 
L 1581 4331 
L 1581 2694 
z
M 353 0 
L 353 331 
L 947 331 
L 947 4331 
L 353 4331 
L 353 4666 
L 2656 4666 
Q 3363 4666 3720 4377 
Q 4078 4088 4078 3513 
Q 4078 3097 3829 2850 
Q 3581 2603 3103 2547 
Q 3697 2472 4005 2167 
Q 4313 1863 4313 1350 
Q 4313 656 3875 328 
Q 3438 0 2509 0 
L 353 0 
z
" transform="scale(0.015625)"/>
      </defs>
      <use xlink:href="#DejaVuSerif-50"/>
      <use xlink:href="#DejaVuSerif-53" transform="translate(67.285156 0)"/>
      <use xlink:href="#DejaVuSerif-44" transform="translate(135.791016 0)"/>
      <use xlink:href="#DejaVuSerif-20" transform="translate(215.966797 0)"/>
      <use xlink:href="#DejaVuSerif-28" transform="translate(247.753906 0)"/>
      <use xlink:href="#DejaVuSerif-64" transform="translate(286.767578 0)"/>
      <use xlink:href="#DejaVuSerif-42" transform="translate(350.78125 0)"/>
      <use xlink:href="#DejaVuSerif-29" transform="translate(424.267578 0)"/>
     </g>
    </g>
   </g>
   <g id="line2d_29">
    <path d="M 80.664403 352.286467 
L 87.274618 219.48681 
L 93.884833 198.71361 
L 100.495047 181.493334 
L 107.105262 144.982577 
L 113.715477 101.83699 
L 120.325691 88.258062 
L 126.935906 87.898206 
L 133.546121 96.623876 
L 140.156335 109.186384 
L 146.76655 120.190894 
L 153.376765 126.531942 
L 159.986979 129.066458 
L 166.597194 120.352295 
L 173.207408 102.770603 
L 179.817623 79.414677 
L 186.427838 74.548898 
L 193.038052 73.858557 
L 199.648267 65.242607 
L 206.258482 71.271502 
L 212.868696 62.234537 
L 219.478911 65.691199 
L 226.089126 90.630865 
L 232.69934 120.762038 
L 239.309555 144.980315 
L 245.91977 153.768587 
L 252.529984 163.370883 
L 259.140199 170.483051 
L 265.750414 173.780262 
L 272.360628 171.67269 
L 278.970843 163.04816 
L 285.581057 125.967819 
L 292.191272 151.763129 
L 298.801487 181.896563 
L 305.411701 187.406814 
L 312.021916 187.000543 
L 318.632131 188.591773 
L 325.242345 190.240417 
L 331.85256 186.232465 
L 338.462775 186.00109 
L 345.072989 191.07293 
L 351.683204 191.726959 
L 358.293419 194.333555 
L 364.903633 196.119651 
L 371.513848 195.401421 
L 378.124063 196.590202 
L 384.734277 207.984368 
L 391.344492 208.464358 
L 397.954706 204.943885 
L 404.564921 204.359519 
L 411.175136 208.206148 
L 417.78535 208.198347 
L 424.395565 207.300072 
L 431.00578 211.843946 
L 437.615994 211.087726 
L 444.226209 207.075796 
L 450.836424 206.691679 
L 457.446638 213.821555 
L 464.056853 214.606717 
L 470.667068 213.302014 
L 477.277282 206.876873 
L 483.887497 198.384568 
L 490.497711 67.480532 
L 497.107926 68.221424 
L 503.718141 202.58918 
L 510.328355 215.14654 
L 516.93857 211.2776 
L 523.548785 217.278529 
L 530.158999 217.530576 
L 536.769214 213.764686 
L 543.379429 214.628871 
L 549.989643 220.155894 
L 556.599858 218.296157 
L 563.210073 217.217915 
L 569.820287 216.10847 
L 576.430502 219.327672 
L 583.040717 220.983727 
L 589.650931 226.922872 
L 596.261146 226.223598 
L 602.87136 214.87811 
L 609.481575 217.287578 
L 616.09179 229.676047 
L 622.702004 220.001826 
L 629.312219 212.316915 
L 635.922434 227.881916 
L 642.532648 232.849068 
L 649.142863 227.138333 
L 655.753078 228.923494 
L 662.363292 231.54694 
L 668.973507 232.468851 
L 675.583722 237.479376 
" clip-path="url(#p98cf8d710a)" style="fill: none; stroke: #b2182b; stroke-width: 2; stroke-linecap: square"/>
   </g>
   <g id="patch_4">
    <path d="M 50.918438 384.601562 
L 50.918438 23.837812 
" style="fill: none; stroke: #000000; stroke-width: 0.8; stroke-linejoin: miter; stroke-linecap: square"/>
   </g>
   <g id="patch_5">
    <path d="M 50.918438 384.601562 
L 705.329688 384.601562 
" style="fill: none; stroke: #000000; stroke-width: 0.8; stroke-linejoin: miter; stroke-linecap: square"/>
   </g>
   <g id="text_17">
    <!-- Grand Average PSD — RS -->
    <g transform="translate(285.924219 17.837812) scale(0.14 -0.14)">
     <defs>
      <path id="DejaVuSerif-47" d="M 4097 3272 
Q 3988 3856 3641 4136 
Q 3294 4416 2675 4416 
Q 1869 4416 1472 3897 
Q 1075 3378 1075 2328 
Q 1075 1300 1484 772 
Q 1894 244 2688 244 
Q 3041 244 3362 331 
Q 3684 419 3975 594 
L 3975 1797 
L 3097 1797 
L 3097 2131 
L 4609 2131 
L 4609 391 
Q 4194 150 3714 29 
Q 3234 -91 2688 -91 
Q 1631 -91 995 570 
Q 359 1231 359 2328 
Q 359 3434 996 4092 
Q 1634 4750 2713 4750 
Q 3113 4750 3539 4658 
Q 3966 4566 4447 4378 
L 4447 3272 
L 4097 3272 
z
" transform="scale(0.015625)"/>
      <path id="DejaVuSerif-61" d="M 2547 1044 
L 2547 1747 
L 1806 1747 
Q 1378 1747 1168 1562 
Q 959 1378 959 997 
Q 959 650 1171 447 
Q 1384 244 1747 244 
Q 2106 244 2326 466 
Q 2547 688 2547 1044 
z
M 3122 2075 
L 3122 331 
L 3634 331 
L 3634 0 
L 2547 0 
L 2547 359 
Q 2356 128 2106 18 
Q 1856 -91 1522 -91 
Q 969 -91 644 203 
Q 319 497 319 997 
Q 319 1513 691 1797 
Q 1063 2081 1741 2081 
L 2547 2081 
L 2547 2309 
Q 2547 2688 2317 2895 
Q 2088 3103 1672 3103 
Q 1328 3103 1125 2947 
Q 922 2791 872 2484 
L 575 2484 
L 575 3156 
Q 875 3284 1158 3348 
Q 1441 3413 1709 3413 
Q 2400 3413 2761 3070 
Q 3122 2728 3122 2075 
z
" transform="scale(0.015625)"/>
      <path id="DejaVuSerif-41" d="M 1281 1691 
L 2994 1691 
L 2138 3909 
L 1281 1691 
z
M -38 0 
L -38 331 
L 372 331 
L 2034 4666 
L 2559 4666 
L 4225 331 
L 4684 331 
L 4684 0 
L 2988 0 
L 2988 331 
L 3506 331 
L 3116 1356 
L 1153 1356 
L 763 331 
L 1275 331 
L 1275 0 
L -38 0 
z
" transform="scale(0.015625)"/>
      <path id="DejaVuSerif-76" d="M 1581 0 
L 359 2988 
L -19 2988 
L -19 3322 
L 1509 3322 
L 1509 2988 
L 978 2988 
L 1913 703 
L 2847 2988 
L 2350 2988 
L 2350 3322 
L 3597 3322 
L 3597 2988 
L 3225 2988 
L 2003 0 
L 1581 0 
z
" transform="scale(0.015625)"/>
      <path id="DejaVuSerif-67" d="M 3359 2988 
L 3359 72 
Q 3359 -644 2965 -1033 
Q 2572 -1422 1844 -1422 
Q 1516 -1422 1216 -1362 
Q 916 -1303 641 -1184 
L 641 -488 
L 941 -488 
Q 997 -813 1206 -963 
Q 1416 -1113 1806 -1113 
Q 2313 -1113 2548 -827 
Q 2784 -541 2784 72 
L 2784 519 
Q 2616 206 2355 57 
Q 2094 -91 1709 -91 
Q 1097 -91 708 395 
Q 319 881 319 1663 
Q 319 2444 706 2928 
Q 1094 3413 1709 3413 
Q 2094 3413 2355 3264 
Q 2616 3116 2784 2803 
L 2784 3322 
L 3909 3322 
L 3909 2988 
L 3359 2988 
z
M 2784 1825 
Q 2784 2422 2554 2737 
Q 2325 3053 1888 3053 
Q 1444 3053 1217 2703 
Q 991 2353 991 1663 
Q 991 975 1217 622 
Q 1444 269 1888 269 
Q 2325 269 2554 583 
Q 2784 897 2784 1497 
L 2784 1825 
z
" transform="scale(0.015625)"/>
      <path id="DejaVuSerif-2014" d="M 281 1906 
L 6119 1906 
L 6119 1491 
L 281 1491 
L 281 1906 
z
" transform="scale(0.015625)"/>
      <path id="DejaVuSerif-52" d="M 3066 2316 
Q 3284 2256 3442 2114 
Q 3600 1972 3725 1716 
L 4403 331 
L 4972 331 
L 4972 0 
L 3872 0 
L 3144 1484 
Q 2934 1916 2759 2042 
Q 2584 2169 2278 2169 
L 1581 2169 
L 1581 331 
L 2241 331 
L 2241 0 
L 353 0 
L 353 331 
L 947 331 
L 947 4331 
L 353 4331 
L 353 4666 
L 2719 4666 
Q 3400 4666 3770 4341 
Q 4141 4016 4141 3419 
Q 4141 2938 3870 2661 
Q 3600 2384 3066 2316 
z
M 1581 2503 
L 2503 2503 
Q 2975 2503 3200 2726 
Q 3425 2950 3425 3419 
Q 3425 3888 3200 4109 
Q 2975 4331 2503 4331 
L 1581 4331 
L 1581 2503 
z
" transform="scale(0.015625)"/>
     </defs>
     <use xlink:href="#DejaVuSerif-47"/>
     <use xlink:href="#DejaVuSerif-72" transform="translate(79.882812 0)"/>
     <use xlink:href="#DejaVuSerif-61" transform="translate(127.685547 0)"/>
     <use xlink:href="#DejaVuSerif-6e" transform="translate(187.304688 0)"/>
     <use xlink:href="#DejaVuSerif-64" transform="translate(251.708984 0)"/>
     <use xlink:href="#DejaVuSerif-20" transform="translate(315.722656 0)"/>
     <use xlink:href="#DejaVuSerif-41" transform="translate(347.509766 0)"/>
     <use xlink:href="#DejaVuSerif-76" transform="translate(415.726562 0)"/>
     <use xlink:href="#DejaVuSerif-65" transform="translate(472.220703 0)"/>
     <use xlink:href="#DejaVuSerif-72" transform="translate(531.400391 0)"/>
     <use xlink:href="#DejaVuSerif-61" transform="translate(579.203125 0)"/>
     <use xlink:href="#DejaVuSerif-67" transform="translate(638.822266 0)"/>
     <use xlink:href="#DejaVuSerif-65" transform="translate(702.835938 0)"/>
     <use xlink:href="#DejaVuSerif-20" transform="translate(762.015625 0)"/>
     <use xlink:href="#DejaVuSerif-50" transform="translate(793.802734 0)"/>
     <use xlink:href="#DejaVuSerif-53" transform="translate(861.087891 0)"/>
     <use xlink:href="#DejaVuSerif-44" transform="translate(929.59375 0)"/>
     <use xlink:href="#DejaVuSerif-20" transform="translate(1009.769531 0)"/>
     <use xlink:href="#DejaVuSerif-2014" transform="translate(1041.556641 0)"/>
     <use xlink:href="#DejaVuSerif-20" transform="translate(1141.556641 0)"/>
     <use xlink:href="#DejaVuSerif-52" transform="translate(1173.34375 0)"/>
     <use xlink:href="#DejaVuSerif-53" transform="translate(1248.636719 0)"/>
    </g>
   </g>
   <g id="legend_1">
    <g id="patch_6">
     <path d="M 579.667188 61.33625 
L 698.329688 61.33625 
Q 700.329688 61.33625 700.329688 59.33625 
L 700.329688 30.837812 
Q 700.329688 28.837812 698.329688 28.837812 
L 579.667188 28.837812 
Q 577.667188 28.837812 577.667188 30.837812 
L 577.667188 59.33625 
Q 577.667188 61.33625 579.667188 61.33625 
z
" style="fill: #ffffff; opacity: 0.8; stroke: #cccccc; stroke-linejoin: miter"/>
    </g>
    <g id="line2d_30">
     <path d="M 581.667188 36.93625 
L 591.667188 36.93625 
L 601.667188 36.93625 
" style="fill: none; stroke: #b2182b; stroke-width: 2; stroke-linecap: square"/>
    </g>
    <g id="text_18">
     <!-- Synthetic (n=22) -->
     <g transform="translate(609.667188 40.43625) scale(0.1 -0.1)">
      <defs>
       <path id="DejaVuSerif-74" d="M 691 2988 
L 184 2988 
L 184 3322 
L 691 3322 
L 691 4353 
L 1269 4353 
L 1269 3322 
L 2350 3322 
L 2350 2988 
L 1269 2988 
L 1269 878 
Q 1269 456 1350 337 
Q 1431 219 1650 219 
Q 1875 219 1978 351 
Q 2081 484 2088 781 
L 2522 781 
Q 2497 328 2275 118 
Q 2053 -91 1600 -91 
Q 1103 -91 897 129 
Q 691 350 691 878 
L 691 2988 
z
" transform="scale(0.015625)"/>
       <path id="DejaVuSerif-68" d="M 263 0 
L 263 331 
L 781 331 
L 781 4531 
L 231 4531 
L 231 4863 
L 1356 4863 
L 1356 2731 
Q 1516 3069 1770 3241 
Q 2025 3413 2363 3413 
Q 2913 3413 3172 3097 
Q 3431 2781 3431 2113 
L 3431 331 
L 3944 331 
L 3944 0 
L 2356 0 
L 2356 331 
L 2853 331 
L 2853 1931 
Q 2853 2541 2704 2764 
Q 2556 2988 2175 2988 
Q 1775 2988 1565 2697 
Q 1356 2406 1356 1850 
L 1356 331 
L 1856 331 
L 1856 0 
L 263 0 
z
" transform="scale(0.015625)"/>
       <path id="DejaVuSerif-69" d="M 622 4353 
Q 622 4497 726 4603 
Q 831 4709 978 4709 
Q 1122 4709 1226 4603 
Q 1331 4497 1331 4353 
Q 1331 4206 1228 4103 
Q 1125 4000 978 4000 
Q 831 4000 726 4103 
Q 622 4206 622 4353 
z
M 1356 331 
L 1900 331 
L 1900 0 
L 231 0 
L 231 331 
L 781 331 
L 781 2988 
L 231 2988 
L 231 3322 
L 1356 3322 
L 1356 331 
z
" transform="scale(0.015625)"/>
       <path id="DejaVuSerif-3d" d="M 678 2894 
L 4684 2894 
L 4684 2394 
L 678 2394 
L 678 2894 
z
M 678 1619 
L 4684 1619 
L 4684 1119 
L 678 1119 
L 678 1619 
z
" transform="scale(0.015625)"/>
      </defs>
      <use xlink:href="#DejaVuSerif-53"/>
      <use xlink:href="#DejaVuSerif-79" transform="translate(68.505859 0)"/>
      <use xlink:href="#DejaVuSerif-6e" transform="translate(125 0)"/>
      <use xlink:href="#DejaVuSerif-74" transform="translate(189.404297 0)"/>
      <use xlink:href="#DejaVuSerif-68" transform="translate(229.589844 0)"/>
      <use xlink:href="#DejaVuSerif-65" transform="translate(293.994141 0)"/>
      <use xlink:href="#DejaVuSerif-74" transform="translate(353.173828 0)"/>
      <use xlink:href="#DejaVuSerif-69" transform="translate(393.359375 0)"/>
      <use xlink:href="#DejaVuSerif-63" transform="translate(425.341797 0)"/>
      <use xlink:href="#DejaVuSerif-20" transform="translate(481.347656 0)"/>
      <use xlink:href="#DejaVuSerif-28" transform="translate(513.134766 0)"/>
      <use xlink:href="#DejaVuSerif-6e" transform="translate(552.148438 0)"/>
      <use xlink:href="#DejaVuSerif-3d" transform="translate(616.552734 0)"/>
      <use xlink:href="#DejaVuSerif-32" transform="translate(700.341797 0)"/>
      <use xlink:href="#DejaVuSerif-32" transform="translate(763.964844 0)"/>
      <use xlink:href="#DejaVuSerif-29" transform="translate(827.587891 0)"/>
     </g>
    </g>
    <g id="patch_7">
     <path d="M 581.667188 55.256562 
L 601.667188 55.256562 
L 601.667188 48.256562 
L 581.667188 48.256562 
z
" style="fill: #fdb863; opacity: 0.1; stroke: #fdb863; stroke-linejoin: miter"/>
    </g>
    <g id="text_19">
     <!-- Alpha (8-13 Hz) -->
     <g transform="translate(609.667188 55.256562) scale(0.1 -0.1)">
      <defs>
       <path id="DejaVuSerif-6c" d="M 1313 331 
L 1856 331 
L 1856 0 
L 184 0 
L 184 331 
L 738 331 
L 738 4531 
L 184 4531 
L 184 4863 
L 1313 4863 
L 1313 331 
z
" transform="scale(0.015625)"/>
       <path id="DejaVuSerif-70" d="M 1313 1825 
L 1313 1497 
Q 1313 897 1542 583 
Q 1772 269 2209 269 
Q 2650 269 2876 622 
Q 3103 975 3103 1663 
Q 3103 2353 2876 2703 
Q 2650 3053 2209 3053 
Q 1772 3053 1542 2737 
Q 1313 2422 1313 1825 
z
M 738 2988 
L 184 2988 
L 184 3322 
L 1313 3322 
L 1313 2803 
Q 1481 3116 1742 3264 
Q 2003 3413 2388 3413 
Q 3000 3413 3387 2928 
Q 3775 2444 3775 1663 
Q 3775 881 3387 395 
Q 3000 -91 2388 -91 
Q 2003 -91 1742 57 
Q 1481 206 1313 519 
L 1313 -997 
L 1856 -997 
L 1856 -1331 
L 184 -1331 
L 184 -997 
L 738 -997 
L 738 2988 
z
" transform="scale(0.015625)"/>
       <path id="DejaVuSerif-2d" d="M 281 1959 
L 1881 1959 
L 1881 1472 
L 281 1472 
L 281 1959 
z
" transform="scale(0.015625)"/>
      </defs>
      <use xlink:href="#DejaVuSerif-41"/>
      <use xlink:href="#DejaVuSerif-6c" transform="translate(72.216797 0)"/>
      <use xlink:href="#DejaVuSerif-70" transform="translate(104.199219 0)"/>
      <use xlink:href="#DejaVuSerif-68" transform="translate(168.212891 0)"/>
      <use xlink:href="#DejaVuSerif-61" transform="translate(232.617188 0)"/>
      <use xlink:href="#DejaVuSerif-20" transform="translate(292.236328 0)"/>
      <use xlink:href="#DejaVuSerif-28" transform="translate(324.023438 0)"/>
      <use xlink:href="#DejaVuSerif-38" transform="translate(363.037109 0)"/>
      <use xlink:href="#DejaVuSerif-2d" transform="translate(426.660156 0)"/>
      <use xlink:href="#DejaVuSerif-31" transform="translate(460.449219 0)"/>
      <use xlink:href="#DejaVuSerif-33" transform="translate(524.072266 0)"/>
      <use xlink:href="#DejaVuSerif-20" transform="translate(587.695312 0)"/>
      <use xlink:href="#DejaVuSerif-48" transform="translate(619.482422 0)"/>
      <use xlink:href="#DejaVuSerif-7a" transform="translate(706.689453 0)"/>
      <use xlink:href="#DejaVuSerif-29" transform="translate(759.375 0)"/>
     </g>
    </g>
   </g>
  </g>
 </g>
 <defs>
  <clipPath id="p98cf8d710a">
   <rect x="50.918438" y="23.837812" width="654.41125" height="360.76375"/>
  </clipPath>
 </defs>
</svg>
